<?xml version="1.0" encoding="utf-8"?>
<!-- Generator: Adobe Illustrator 16.0.0, SVG Export Plug-In . SVG Version: 6.00 Build 0)  -->
<!DOCTYPE svg PUBLIC "-//W3C//DTD SVG 1.1//EN" "http://www.w3.org/Graphics/SVG/1.1/DTD/svg11.dtd">
<svg version="1.1" id="Layer_1" xmlns="http://www.w3.org/2000/svg" xmlns:xlink="http://www.w3.org/1999/xlink" x="0px" y="0px"
	 width="70.87px" height="70.87px" viewBox="0 0 70.87 70.87" enable-background="new 0 0 70.87 70.87" xml:space="preserve">
<g>
	<path fill="#F7F7F7" d="M33.077,32.641V19.558c0,0,0.692-2.078,2.669-2.078s2.588,2.078,2.588,2.078v13.083h12.717
		c0,0,2.689,0.612,2.689,2.69c0,2.079-2.689,2.935-2.689,2.935H38.335v12.716c0,0-0.163,2.324-2.588,2.446
		c-2.424,0.122-2.669-2.446-2.669-2.446V38.388H19.995c0,0-2.079-0.606-2.079-2.932s1.957-2.814,1.957-2.814h13.694"/>
	<g>
		<path fill="#213346" d="M35.747,0.708C16.556,0.708,1,16.265,1,35.456c0,19.19,15.557,34.748,34.747,34.748
			c19.19,0,34.748-15.558,34.748-34.748C70.494,16.265,54.937,0.708,35.747,0.708z M35.747,64.454
			c-16.016,0-28.999-12.983-28.999-28.999c0-16.016,12.983-28.999,28.999-28.999c16.015,0,28.999,12.983,28.999,28.999
			C64.745,51.471,51.762,64.454,35.747,64.454z"/>
		<path fill="#F7F7F7" d="M35.747,0.708C16.556,0.708,1,16.265,1,35.456c0,19.19,15.557,34.748,34.747,34.748
			c19.19,0,34.748-15.558,34.748-34.748C70.494,16.265,54.937,0.708,35.747,0.708z M35.747,64.454
			c-16.016,0-28.999-12.983-28.999-28.999c0-16.016,12.983-28.999,28.999-28.999c16.015,0,28.999,12.983,28.999,28.999
			C64.745,51.471,51.762,64.454,35.747,64.454z"/>
	</g>
</g>
</svg>
