<?xml version="1.0" encoding="utf-8"?>
<!-- Generator: Adobe Illustrator 16.0.0, SVG Export Plug-In . SVG Version: 6.00 Build 0)  -->
<!DOCTYPE svg PUBLIC "-//W3C//DTD SVG 1.1//EN" "http://www.w3.org/Graphics/SVG/1.1/DTD/svg11.dtd">
<svg version="1.1" id="Layer_1" xmlns="http://www.w3.org/2000/svg" xmlns:xlink="http://www.w3.org/1999/xlink" x="0px" y="0px"
	 width="70.87px" height="70.87px" viewBox="0 0 70.87 70.87" enable-background="new 0 0 70.87 70.87" xml:space="preserve">
<g>
	<g id="backspace">
		<path fill="#F6F7F8" d="M64.233,10.063H21.036c-2.016,0-3.456,0.863-4.608,2.592L0.877,35.981l15.551,23.327
			c1.152,1.439,2.592,2.592,4.608,2.592h43.197c3.168,0,5.76-2.592,5.76-5.76V15.822C69.993,12.655,67.401,10.063,64.233,10.063z
			 M55.594,46.349l-4.032,4.032L41.195,40.013L30.828,50.381l-4.032-4.032l10.367-10.367L26.796,25.614l4.032-4.032l10.367,10.367
			l10.366-10.367l4.032,4.032L45.227,35.981L55.594,46.349z"/>
	</g>
</g>
</svg>
