<?xml version="1.0" encoding="utf-8"?>
<!-- Generator: Adobe Illustrator 16.0.0, SVG Export Plug-In . SVG Version: 6.00 Build 0)  -->
<!DOCTYPE svg PUBLIC "-//W3C//DTD SVG 1.1//EN" "http://www.w3.org/Graphics/SVG/1.1/DTD/svg11.dtd">
<svg version="1.1" id="Layer_1" xmlns="http://www.w3.org/2000/svg" xmlns:xlink="http://www.w3.org/1999/xlink" x="0px" y="0px"
	 width="70.871px" height="70.871px" viewBox="0 0 70.871 70.871" enable-background="new 0 0 70.871 70.871" xml:space="preserve">
<g>
	<g>
		<path fill="#213346" d="M26.889,48.329c-0.031-8.806-5.473-15.932-12.183-15.932S2.555,39.523,2.523,48.329h9.752
			c-0.817-0.887-1.44-2.061-1.478-3.565c-0.077-2.993,2.999-4.438,2.999-4.438v-1.943h2.163v1.943c0,0,2.392,1.197,2.619,1.943
			l-1.537,2.021c0,0-1.31-1.272-2.334-0.972c-1.025,0.299-1.48,1.645-0.911,2.542c0.557,0.88,2.746,1.332,3.8,2.47L26.889,48.329
			L26.889,48.329z"/>
		<path fill="#213346" d="M26.889,48.329h-9.293c0.023,0.025,0.049,0.047,0.071,0.074c1.025,1.195,1.822,3.89,0.911,5.534
			c-0.911,1.645-1.898,2.193-2.619,2.494v2.342h-2.277v-2.342c0,0-2.202,0.148-3.378-2.793l1.632-2.244c0,0,0.949,2.194,2.809,2.146
			c1.86-0.052,1.784-2.693,0.152-3.393c-0.813-0.348-1.812-0.939-2.621-1.818H2.523c0,0.025-0.001,0.05-0.001,0.074
			c0,8.84,5.455,16.006,12.184,16.006S26.89,57.243,26.89,48.403C26.891,48.378,26.889,48.354,26.889,48.329z"/>
	</g>
	<path fill="#213346" d="M28.013,49.226c-0.327,9.283-6.159,16.679-13.307,16.679S1.727,58.509,1.4,49.226H0.603
		c0.328,9.862,6.516,17.727,14.104,17.727s13.776-7.864,14.104-17.727H28.013z"/>
	<path fill="#213346" d="M14.707,29.854c-7.798,0-14.12,8.303-14.12,18.548c0,0.277,0.007,0.552,0.016,0.823H1.4
		c-0.01-0.271-0.016-0.546-0.016-0.823c0-9.665,5.965-17.501,13.323-17.501S28.03,38.737,28.03,48.403
		c0,0.277-0.006,0.552-0.016,0.823h0.797c0.01-0.271,0.016-0.546,0.016-0.823C28.827,38.158,22.505,29.854,14.707,29.854z"/>
	<g>
		<path fill="#213346" d="M44.71,60.441c0,0,0.514,0.377,2.506,0.454c0,0,8.824,0.598,11.047,0.372
			c2.22-0.226,9.963,0.075,11.729-0.898v-3.813c-1.766,0.972-9.509,0.673-11.729,0.897c-2.223,0.226-11.047-0.374-11.047-0.374
			c-1.992-0.074-2.506-0.454-2.506-0.454V60.441z"/>
		<path fill="#213346" d="M44.71,55.356c0,0,0.514,0.377,2.506,0.452c0,0,8.824,0.597,11.047,0.374
			c2.22-0.224,9.963,0.074,11.729-0.898v-3.815c-1.766,0.973-9.509,0.675-11.729,0.899c-2.223,0.225-11.047-0.374-11.047-0.374
			c-1.992-0.076-2.506-0.452-2.506-0.452V55.356z"/>
		<polygon fill="#213346" points="9.241,7.418 11.689,4.126 25.354,22.3 42.833,14.224 55.358,30.677 57.921,27.686 59.914,40.626 
			50.349,36.737 52.796,33.818 41.979,19.384 24.613,27.387 		"/>
		<path fill="#213346" d="M45.507,49.749c0,0,7.062-0.748,11.332-0.748c4.27,0,9.108,0.15,11.33,0.523
			c2.221,0.375,3.358,0.747,0,1.121c-3.359,0.377-9.168,0.675-11.273,0.601c-2.105-0.076-8.482-0.148-10.189-0.523
			C44.996,50.349,43.63,50.273,45.507,49.749z"/>
		<rect x="46.078" y="52.743" fill="#FFFFFF" width="0.398" height="2.243"/>
		<rect x="48.185" y="53.039" fill="#FFFFFF" width="0.398" height="2.245"/>
		<rect x="50.861" y="53.19" fill="#FFFFFF" width="0.398" height="2.245"/>
		<rect x="53.765" y="53.265" fill="#FFFFFF" width="0.398" height="2.244"/>
		<rect x="57.125" y="53.339" fill="#FFFFFF" width="0.397" height="2.242"/>
		<rect x="60.425" y="53.265" fill="#FFFFFF" width="0.398" height="2.244"/>
		<rect x="63.425" y="53.216" fill="#FFFFFF" width="0.397" height="2.242"/>
		<rect x="66.042" y="53.116" fill="#FFFFFF" width="0.398" height="2.242"/>
		<rect x="68.207" y="52.816" fill="#FFFFFF" width="0.397" height="2.243"/>
		<rect x="46.078" y="57.728" fill="#FFFFFF" width="0.398" height="2.243"/>
		<rect x="48.185" y="58.027" fill="#FFFFFF" width="0.398" height="2.245"/>
		<rect x="50.861" y="58.175" fill="#FFFFFF" width="0.398" height="2.244"/>
		<rect x="53.765" y="58.25" fill="#FFFFFF" width="0.398" height="2.245"/>
		<rect x="57.125" y="58.327" fill="#FFFFFF" width="0.397" height="2.244"/>
		<rect x="60.425" y="58.25" fill="#FFFFFF" width="0.398" height="2.245"/>
		<rect x="63.425" y="58.201" fill="#FFFFFF" width="0.397" height="2.245"/>
		<rect x="66.042" y="58.101" fill="#FFFFFF" width="0.398" height="2.245"/>
		<rect x="68.207" y="57.802" fill="#FFFFFF" width="0.397" height="2.243"/>
		<g>
			<path fill="#213346" d="M58.263,57.454c-2.223,0.226-11.047-0.374-11.047-0.374c-1.992-0.074-2.506-0.454-2.506-0.454v2.448
				h1.367v-1.497h0.398v1.497h1.708v-1.196h0.397v1.196h2.278v-1.047h0.397v1.047h2.506v-0.973h0.398v0.973h2.961v-0.898h0.397
				v0.898h2.903v-0.973h0.397v0.973h2.601v-1.021h0.398v1.021h2.221v-1.121h0.397v1.121h1.765v-1.422h0.398v1.422h1.387v-2.518
				C68.226,57.528,60.482,57.229,58.263,57.454z"/>
			<path fill="#213346" d="M68.604,59.074v0.823h-0.397v-0.823h-1.766v1.122h-0.398v-1.122h-2.22v1.223h-0.397v-1.223h-2.602v1.272
				h-0.398v-1.272h-2.902v1.346h-0.398v-1.346h-2.961v1.272h-0.397v-1.272h-2.507v1.198h-0.397v-1.198h-2.278v1.047h-0.397v-1.047
				h-1.708v0.748H46.08v-0.748h-1.367v1.367c0,0,0.514,0.377,2.507,0.454c0,0,8.823,0.598,11.046,0.372
				c2.22-0.226,9.963,0.075,11.729-0.898v-1.295H68.604z"/>
		</g>
		<g>
			<path fill="#213346" d="M58.263,62.637c-2.223,0.226-11.047-0.372-11.047-0.372c-1.992-0.074-2.506-0.454-2.506-0.454v2.446
				h1.367v-1.496h0.398v1.496h1.708v-1.194h0.397v1.194h2.278v-1.046h0.397v1.046h2.506v-0.971h0.398v0.971h2.961v-0.896h0.397
				v0.896h2.903v-0.971h0.397v0.971h2.601v-1.02h0.398v1.02h2.221v-1.12h0.397v1.12h1.765v-1.419h0.398v1.419h1.387v-2.517
				C68.226,62.714,60.482,62.414,58.263,62.637z"/>
			<path fill="#213346" d="M68.604,64.257v0.825h-0.397v-0.825h-1.766v1.122h-0.398v-1.122h-2.22v1.226h-0.397v-1.226h-2.602v1.273
				h-0.398v-1.273h-2.902v1.346h-0.398v-1.346h-2.961v1.273h-0.397v-1.273h-2.507v1.197h-0.397v-1.197h-2.278v1.048h-0.397v-1.048
				h-1.708v0.749H46.08v-0.749h-1.367v1.369c0,0,0.514,0.377,2.507,0.454c0,0,8.823,0.598,11.046,0.372
				c2.22-0.225,9.963,0.074,11.729-0.898v-1.297H68.604z"/>
		</g>
		<g>
			<path fill="#213346" d="M58.263,52.466c-2.223,0.227-11.047-0.371-11.047-0.371c-1.992-0.077-2.506-0.455-2.506-0.455v2.448
				h1.367v-1.497h0.398v1.497h1.708V52.89h0.397v1.198h2.278v-1.05h0.397v1.05h2.506v-0.973h0.398v0.973h2.961v-0.899h0.397v0.899
				h2.903v-0.973h0.397v0.973h2.601v-1.023h0.398v1.023h2.221v-1.123h0.397v1.123h1.765v-1.422h0.398v1.422h1.387v-2.517
				C68.226,52.542,60.482,52.241,58.263,52.466z"/>
			<path fill="#213346" d="M68.604,54.088v0.821h-0.397v-0.821h-1.766v1.121h-0.398v-1.121h-2.22v1.221h-0.397v-1.221h-2.602v1.27
				h-0.398v-1.27h-2.902v1.346h-0.398v-1.346h-2.961v1.27h-0.397v-1.27h-2.507v1.195h-0.397v-1.195h-2.278v1.047h-0.397v-1.047
				h-1.708v0.746H46.08v-0.746h-1.367v1.365c0,0,0.514,0.379,2.507,0.454c0,0,8.823,0.598,11.046,0.374
				c2.22-0.226,9.963,0.076,11.729-0.897v-1.296H68.604z"/>
		</g>
		<path fill="#213346" d="M36.796,43.966c-3.077-0.235-6.86-0.205-7.282-0.2c0.068,0.391,0.128,0.783,0.179,1.181
			c0.005,0.033,0.009,0.066,0.014,0.102c0.033,0.268,0.062,0.54,0.086,0.811c0.324,0,5.207,0,7.003,0
			c1.861,0,6.074-0.647,6.074-0.995S40.062,44.215,36.796,43.966z"/>
		<g>
			<path fill="#213346" d="M31.084,47.181c-0.294,0.028-0.707,0.045-1.197,0.049c0.014,0.352,0.021,0.704,0.021,1.063
				c0,0.169-0.007,0.339-0.01,0.509h0.048v-0.896h0.398v0.896h2.904v-0.971h0.398v0.971h2.6v-1.021h0.398v1.021h2.221V47.68h0.398
				v1.121h1.765v-1.418h0.399v1.418h1.385v-2.517C41.048,47.255,33.306,46.957,31.084,47.181z"/>
			<path fill="#213346" d="M41.429,48.801v0.825H41.03v-0.825h-1.765v1.123h-0.398v-1.123h-2.221v1.223h-0.398v-1.223h-2.6v1.273
				H33.25v-1.273h-2.904v1.346h-0.398v-1.346H29.9c-0.015,0.759-0.06,1.507-0.137,2.244c0.546-0.003,1.004-0.018,1.323-0.049
				c2.221-0.224,9.962,0.074,11.729-0.898v-1.297H41.429z"/>
		</g>
		<g>
			<path fill="#213346" d="M31.084,52.368c-0.353,0.035-0.875,0.051-1.5,0.051c-0.084,0.53-0.187,1.054-0.303,1.567h0.665V53.09
				h0.398v0.896h2.904v-0.969h0.398v0.969h2.6v-1.021h0.398v1.021h2.221v-1.12h0.398v1.12h1.765v-1.419h0.399v1.419h1.385v-2.518
				C41.048,52.441,33.306,52.143,31.084,52.368z"/>
			<path fill="#213346" d="M41.429,53.986v0.823H41.03v-0.823h-1.765v1.124h-0.398v-1.124h-2.221v1.224h-0.398v-1.224h-2.6v1.275
				H33.25v-1.275h-2.904v1.348h-0.398v-1.348h-0.665c-0.172,0.765-0.375,1.513-0.612,2.237c1.031,0.018,1.901,0.01,2.415-0.041
				c2.221-0.224,9.962,0.074,11.729-0.898v-1.298H41.429z"/>
		</g>
		<g>
			<path fill="#213346" d="M31.084,57.554c-0.594,0.061-1.665,0.061-2.91,0.028c-0.216,0.546-0.452,1.075-0.705,1.589h2.477v-0.896
				h0.398v0.896h2.904v-0.971h0.398v0.971h2.6v-1.02h0.398v1.02h2.221v-1.122h0.398v1.122h1.765v-1.419h0.399v1.419h1.385v-2.518
				C41.048,57.627,33.306,57.329,31.084,57.554z"/>
			<path fill="#213346" d="M41.429,59.171v0.824H41.03v-0.824h-1.765v1.123h-0.398v-1.123h-2.221v1.224h-0.398v-1.224h-2.6v1.274
				H33.25v-1.274h-2.904v1.347h-0.398v-1.347H27.47c-0.155,0.317-0.316,0.628-0.484,0.931v0.344h-0.192
				c-0.175,0.303-0.359,0.596-0.547,0.888c2.011,0.081,3.952,0.123,4.838,0.033c2.221-0.224,9.963,0.075,11.729-0.897v-1.298H41.429
				z"/>
		</g>
		<g>
			<path fill="#213346" d="M31.084,62.74c-1.025,0.102-3.46,0.031-5.783-0.078c-0.387,0.496-0.794,0.966-1.219,1.407v0.289h2.505
				v-0.972h0.398v0.972h2.961V63.46h0.398v0.897h2.904v-0.972h0.398v0.972h2.6v-1.021h0.398v1.021h2.221v-1.12h0.398v1.12h1.765
				v-1.421h0.399v1.421h1.385V61.84C41.048,62.814,33.306,62.513,31.084,62.74z"/>
			<path fill="#213346" d="M41.429,64.359v0.823H41.03v-0.823h-1.765v1.124h-0.398v-1.124h-2.221v1.224h-0.398v-1.224h-2.6v1.272
				H33.25v-1.272h-2.904v1.347h-0.398v-1.347h-2.961v1.272h-0.398v-1.272h-2.505v1.196h-0.398v-1.081
				c-0.7,0.68-1.446,1.28-2.229,1.796c2.586,0.158,7.965,0.452,9.63,0.283c2.221-0.224,9.963,0.076,11.729-0.896v-1.298H41.429z"/>
		</g>
	</g>
</g>
</svg>
