<?xml version="1.0" encoding="utf-8"?>
<!-- Generator: Adobe Illustrator 16.0.0, SVG Export Plug-In . SVG Version: 6.00 Build 0)  -->
<!DOCTYPE svg PUBLIC "-//W3C//DTD SVG 1.1//EN" "http://www.w3.org/Graphics/SVG/1.1/DTD/svg11.dtd">
<svg version="1.1" id="Layer_1" xmlns="http://www.w3.org/2000/svg" xmlns:xlink="http://www.w3.org/1999/xlink" x="0px" y="0px"
	 width="70.87px" height="70.87px" viewBox="0 0 70.87 70.87" enable-background="new 0 0 70.87 70.87" xml:space="preserve">
<g>
	<g>
		<path fill="#213346" d="M6.479,49.743c2.209,0.649,7.795,0.649,8.315,0.649v-9.614H1.801v8.965
			C1.801,49.743,2.062,48.574,6.479,49.743z"/>
		<path fill="#213346" d="M1.801,59.747v10.394h12.992V61.71C8.589,61.418,3.86,60.434,1.801,59.747z"/>
	</g>
	<g>
		<path fill="#213346" d="M33.243,48.834v-16.89H20.25v18.445C24.12,50.286,29.297,49.93,33.243,48.834z"/>
		<path fill="#213346" d="M20.25,61.772v8.368h12.992v-9.829C28.678,61.252,24.271,61.677,20.25,61.772z"/>
	</g>
	<g>
		<path fill="#213346" d="M51.562,39.479V21.031H38.569v26.043C43.472,45.183,47.908,42.652,51.562,39.479z"/>
		<path fill="#213346" d="M38.635,58.968c-0.022,0.007-0.044,0.012-0.065,0.019v11.154h12.992V53.077
			C47.849,55.386,43.507,57.527,38.635,58.968z"/>
	</g>
	<g>
		<path fill="#213346" d="M65.854,40.883c0,0-3.142,3.919-8.705,8.28v20.978h12.992V41.618
			C68.93,41.828,67.125,41.901,65.854,40.883z"/>
		<path fill="#213346" d="M69.102,21.031l1.039-1.689v-6.886H57.148v13.365C59.681,24.208,65.597,20.73,69.102,21.031z"/>
	</g>
	<path fill="#213346" d="M4.14,53.077c0,0,14.421,3.292,29.103-0.476s18.779-7.865,22.349-11.436s7.014-7.793,8.053-10.001
		l-2.209,0.779c0,0-2.729,1.04-3.508,0c-0.779-1.039-0.649-2.079,4.027-4.417c4.678-2.339,5.717-2.339,6.886-2.339
		c1.17,0,1.3,1.169,1.3,2.469c0,1.299,0,8.185,0,8.185s0.909,1.948-1.039,1.948c-1.949,0-1.949-2.338-1.949-2.338v-2.988
		c0,0-2.599,4.287-7.926,9.744c-5.326,5.457-9.224,7.535-15.07,10.264s-13.512,4.938-21.567,5.197s-14.681-0.78-19.358-1.43
		C1.932,55.85,0.892,53.813,4.14,53.077z"/>
	<path fill="#213346" d="M25.577,5.44V2.322h2.079V5.44c0,0,3.118,0,4.547,1.559l-1.949,2.338c0,0-1.949-1.299-3.508-1.299
		s-3.378,0.649-2.469,2.208c0.91,1.559,6.366,1.689,7.925,3.638s1.689,5.977-1.819,7.925c-1.299,0.78-2.858,0.78-2.858,0.78v3.231
		h-1.949V22.59c0,0-3.118,0.39-5.327-2.209l2.468-2.468c0,0,0.39,1.169,2.469,1.819c2.079,0.649,3.768-0.593,3.768-0.593
		c0.78-0.966,1.559-2.655-2.208-3.564c-3.768-0.909-5.067-1.429-5.847-5.197C20.121,6.609,25.577,5.44,25.577,5.44z"/>
</g>
</svg>
