<?xml version="1.0" standalone="no"?>
<!DOCTYPE svg PUBLIC "-//W3C//DTD SVG 20010904//EN"
 "http://www.w3.org/TR/2001/REC-SVG-20010904/DTD/svg10.dtd">
<svg version="1.0" xmlns="http://www.w3.org/2000/svg"
 width="411.000000pt" height="411.000000pt" viewBox="0 0 411.000000 411.000000"
 preserveAspectRatio="xMidYMid meet">
<metadata>
Created by potrace 1.11, written by Peter Selinger 2001-2013
</metadata>
<g transform="translate(0.000000,411.000000) scale(0.100000,-0.100000)"
fill="#000000" stroke="none">
<path d="M1404 4095 c-21 -6 -68 -27 -104 -45 -69 -35 -57 -34 -237 -14 -54 6
-66 -3 -37 -26 8 -7 43 -52 76 -99 34 -47 92 -127 130 -177 103 -138 196 -349
212 -484 4 -30 11 -57 15 -60 14 -8 1190 -4 1198 4 4 4 16 49 26 99 10 51 20
103 23 116 7 36 44 118 77 176 25 42 131 195 285 409 l36 49 -50 -7 c-27 -3
-87 -9 -134 -12 l-85 -6 -65 43 c-56 38 -72 43 -115 42 -28 0 -68 -8 -89 -17
-37 -15 -43 -15 -84 1 -68 26 -160 22 -211 -8 l-43 -25 -46 23 c-81 40 -175
36 -236 -8 -23 -17 -33 -19 -45 -11 -32 23 -84 42 -125 46 -43 3 -126 -22
-155 -48 -15 -14 -21 -12 -64 16 -52 34 -95 40 -153 23z"/>
<path d="M1434 2975 c-2 -5 -21 -65 -43 -131 -80 -243 -230 -436 -440 -564
-154 -93 -252 -202 -339 -375 -28 -57 -81 -178 -86 -200 -2 -5 -10 -35 -19
-65 -48 -159 -57 -378 -25 -559 75 -421 301 -714 678 -882 201 -90 418 -151
615 -175 28 -3 74 -9 102 -13 59 -9 324 -7 393 3 25 3 59 8 75 10 243 34 518
121 712 226 309 166 509 460 573 839 46 269 5 540 -119 791 -98 198 -199 312
-357 405 -187 110 -345 305 -423 523 -16 45 -28 82 -26 82 2 0 -5 21 -14 47
l-17 48 -132 0 c-73 1 -132 0 -132 -2 0 -1 22 -28 48 -60 96 -116 152 -197
161 -232 30 -114 22 -161 -44 -249 -74 -102 -166 -138 -287 -113 -104 22 -185
93 -218 192 l-17 50 -11 -43 c-40 -156 -240 -251 -392 -186 -81 35 -169 153
-174 235 -7 95 24 157 161 326 35 42 60 77 56 78 -49 7 -256 2 -259 -6z m823
-849 c270 -58 521 -245 656 -487 145 -260 160 -603 38 -873 -56 -124 -165
-270 -262 -351 -54 -45 -107 -85 -113 -85 -4 0 -23 -10 -44 -23 -42 -26 -175
-83 -212 -91 -14 -3 -54 -12 -90 -19 -44 -10 -108 -14 -195 -12 -151 4 -170 6
-290 46 -536 178 -812 760 -609 1288 126 328 437 575 779 618 22 3 41 6 43 8
10 9 239 -6 299 -19z"/>
<path d="M2010 2022 c-212 -12 -388 -88 -561 -244 -46 -41 -129 -158 -168
-237 -58 -117 -80 -207 -85 -351 -19 -468 352 -867 818 -884 332 -11 628 154
788 439 186 330 130 749 -136 1019 -80 81 -144 127 -247 175 -98 47 -177 69
-274 77 -38 3 -74 6 -80 7 -5 1 -30 1 -55 -1z m298 -135 c218 -76 396 -259
473 -487 28 -84 32 -109 33 -210 2 -174 -11 -236 -75 -365 -78 -157 -195 -273
-354 -350 -407 -197 -884 -8 -1050 415 -100 256 -47 565 135 774 208 239 539
327 838 223z"/>
<path d="M2024 1768 c-4 -6 -7 -30 -5 -53 2 -39 1 -41 -31 -43 -50 -4 -134
-49 -171 -92 -42 -50 -56 -93 -52 -170 4 -109 60 -172 197 -220 l53 -18 2
-136 c1 -88 -2 -136 -9 -136 -27 0 -69 47 -103 115 -39 79 -59 94 -110 81 -27
-7 -55 -52 -55 -89 0 -38 49 -125 90 -160 21 -18 72 -43 112 -58 l73 -25 1
-87 c0 -100 14 -128 53 -108 19 11 21 20 21 113 0 56 3 99 6 95 18 -18 166 51
208 97 43 48 81 194 60 228 -4 7 -9 20 -9 29 -4 51 -82 114 -188 151 -41 14
-67 29 -68 38 -1 18 -1 152 0 198 1 17 5 32 9 32 4 0 25 -24 47 -52 83 -112
105 -126 154 -92 21 15 23 23 19 70 -7 88 -80 161 -186 186 l-52 13 0 40 c0
23 -5 46 -12 53 -15 15 -45 15 -54 0z m-7 -333 c0 -49 -2 -93 -4 -97 -2 -5
-17 -1 -33 7 -90 46 -93 154 -6 190 41 17 43 11 43 -100z m182 -351 c25 -32
28 -90 6 -121 -18 -26 -62 -58 -92 -67 -21 -7 -21 -5 -22 115 0 67 2 126 5
130 8 13 79 -27 103 -57z"/>
<path d="M1825 2876 c-51 -61 -107 -127 -124 -146 -60 -68 -76 -132 -47 -189
43 -82 158 -84 212 -4 11 17 27 60 34 95 6 35 14 72 16 83 2 11 13 70 24 130
11 61 22 117 24 126 2 10 -5 15 -22 15 -19 0 -45 -25 -117 -110z"/>
<path d="M2144 2978 c-3 -4 -3 -16 0 -26 3 -9 7 -28 10 -42 2 -14 14 -71 25
-128 11 -56 23 -117 26 -135 22 -124 49 -156 136 -165 46 -4 51 -2 89 36 38
37 47 62 41 112 -3 24 -38 69 -168 218 -110 126 -144 154 -159 130z"/>
</g>
</svg>
