<?xml version="1.0" encoding="utf-8"?>
<!-- Generator: Adobe Illustrator 16.0.0, SVG Export Plug-In . SVG Version: 6.00 Build 0)  -->
<!DOCTYPE svg PUBLIC "-//W3C//DTD SVG 1.1//EN" "http://www.w3.org/Graphics/SVG/1.1/DTD/svg11.dtd">
<svg version="1.1" id="Layer_1" xmlns="http://www.w3.org/2000/svg" xmlns:xlink="http://www.w3.org/1999/xlink" x="0px" y="0px"
	 width="70.87px" height="70.87px" viewBox="0 0 70.87 70.87" enable-background="new 0 0 70.87 70.87" xml:space="preserve">
<g>
	<path fill="#213346" d="M32.763,32.701V19.603c0,0,0.693-2.081,2.673-2.081c1.979,0,2.591,2.081,2.591,2.081v13.099h12.73
		c0,0,2.693,0.612,2.693,2.693s-2.693,2.938-2.693,2.938h-12.73v12.73c0,0-0.164,2.326-2.591,2.449
		c-2.428,0.122-2.673-2.449-2.673-2.449V38.455H19.665c0,0-2.081-0.608-2.081-2.936c0-2.328,1.958-2.818,1.958-2.818h13.711"/>
	<g>
		<path fill="#213346" d="M35.437,0.73c-19.214,0-34.79,15.576-34.79,34.789s15.576,34.79,34.79,34.79
			c19.212,0,34.788-15.576,34.788-34.79S54.648,0.73,35.437,0.73z M35.437,64.553c-16.036,0-29.035-12.999-29.035-29.034
			S19.4,6.485,35.437,6.485c16.034,0,29.032,12.999,29.032,29.034S51.471,64.553,35.437,64.553z"/>
		<path fill="#213346" d="M35.437,0.73c-19.214,0-34.79,15.576-34.79,34.789s15.576,34.79,34.79,34.79
			c19.212,0,34.788-15.576,34.788-34.79S54.648,0.73,35.437,0.73z M35.437,64.553c-16.036,0-29.035-12.999-29.035-29.034
			S19.4,6.485,35.437,6.485c16.034,0,29.032,12.999,29.032,29.034S51.471,64.553,35.437,64.553z"/>
	</g>
</g>
</svg>
