<?xml version="1.0" encoding="utf-8"?>
<!-- Generator: Adobe Illustrator 16.0.0, SVG Export Plug-In . SVG Version: 6.00 Build 0)  -->
<!DOCTYPE svg PUBLIC "-//W3C//DTD SVG 1.1//EN" "http://www.w3.org/Graphics/SVG/1.1/DTD/svg11.dtd">
<svg version="1.1" id="Layer_1" xmlns="http://www.w3.org/2000/svg" xmlns:xlink="http://www.w3.org/1999/xlink" x="0px" y="0px"
	 width="70.87px" height="70.87px" viewBox="0 0 70.87 70.87" enable-background="new 0 0 70.87 70.87" xml:space="preserve">
<path fill="#213346" d="M46.115,47.76c0,0,1.544-0.158,3.164-1.594s7.201-5.264,8.955-6.697c1.754-1.436,6.06-5.104,7.814-5.901
	c1.754-0.797,5.421,0.797,4.305,3.668c-1.116,2.869-2.232,3.986-5.501,7.254c-3.27,3.27-8.93,8.932-11.96,11.961
	s-6.777,6.777-6.777,6.777s-0.318,2.072-4.624,1.914c-4.306-0.16-9.728-1.117-13.077-1.596c-3.349-0.479-7.016-1.275-9.249-1.275
	c-2.233,0-4.306,1.436-4.625,2.072c-0.319,0.639-1.914,2.871-4.784,2.393c-2.87-0.479-2.392,0-4.465-2.072
	c-2.073-2.074-4.704-4.705-4.704-4.705s-1.037-3.27,0.877-5.342s11.8-11.959,11.8-11.959s3.987-2.393,8.771-1.436
	c4.784,0.957,19.614,5.58,19.614,5.58s1.913,0.16,2.711,1.117c0.797,0.957,0.159,3.189-0.479,5.262
	c-0.638,2.074-0.797,2.074-2.711,2.074l-16.584-4.465c0,0-3.349-0.957-1.275,1.275l17.222,4.943c0,0,3.269,1.195,4.624-2.393
	S47.312,48.957,46.115,47.76z"/>
<g>
	<path fill="#213346" d="M36.707,22.565v5.422c0,0,3.668-0.185,3.668-2.711S36.707,22.565,36.707,22.565z"/>
	<path fill="#213346" d="M32.322,16.585c0,1.835,2.472,2.472,2.472,2.472v-4.943C34.793,14.113,32.322,14.75,32.322,16.585z"/>
	<path fill="#213346" d="M35.91,4.102c-9.247,0-16.744,7.497-16.744,16.744s7.497,16.744,16.744,16.744
		c9.248,0,16.744-7.497,16.744-16.744S45.157,4.102,35.91,4.102z M37.025,30.697v1.276h-2.392v-1.276c-5.616,0-5.9-6.06-5.9-6.06
		l2.87,0.16c0,3.297,3.189,3.349,3.189,3.349v-6.378c0,0-5.389-0.018-5.479-5.183s5.479-4.864,5.479-4.864l-0.16-2.392h2.392v2.232
		c5.9,0,5.582,5.103,5.582,5.103h-2.711c0-2.335-3.03-2.392-3.03-2.392v5.582c0,0,6.036,0.021,6.09,5.422
		S37.025,30.697,37.025,30.697z"/>
</g>
</svg>
