<?xml version="1.0" encoding="utf-8"?>
<!-- Generator: Adobe Illustrator 16.0.0, SVG Export Plug-In . SVG Version: 6.00 Build 0)  -->
<!DOCTYPE svg PUBLIC "-//W3C//DTD SVG 1.1//EN" "http://www.w3.org/Graphics/SVG/1.1/DTD/svg11.dtd">
<svg version="1.1" id="Layer_1" xmlns="http://www.w3.org/2000/svg" xmlns:xlink="http://www.w3.org/1999/xlink" x="0px" y="0px"
	 width="70.87px" height="70.87px" viewBox="0 0 70.87 70.87" enable-background="new 0 0 70.87 70.87" xml:space="preserve">
<g>
	<ellipse fill="none" stroke="#213346" stroke-width="3" stroke-miterlimit="10" cx="51.247" cy="41.334" rx="18.109" ry="5.29"/>
	<path fill="none" stroke="#213346" stroke-width="3" stroke-miterlimit="10" d="M51.246,63.358c-10.001,0-18.108-2.368-18.108-5.29
		v5.657c0,2.922,8.107,5.29,18.108,5.29c10.002,0,18.109-2.368,18.109-5.29v-5.657C69.355,60.99,61.248,63.358,51.246,63.358z"/>
	<path fill="none" stroke="#213346" stroke-width="3" stroke-miterlimit="10" d="M51.246,57.885c-10.001,0-18.108-2.369-18.108-5.29
		v5.657c0,2.922,8.107,5.291,18.108,5.291c10.002,0,18.109-2.369,18.109-5.291v-5.657C69.355,55.516,61.248,57.885,51.246,57.885z"
		/>
	<path fill="none" stroke="#213346" stroke-width="3" stroke-miterlimit="10" d="M51.246,52.487c-10.001,0-18.108-2.369-18.108-5.29
		v5.656c0,2.923,8.107,5.291,18.108,5.291c10.002,0,18.109-2.368,18.109-5.291v-5.656C69.355,50.118,61.248,52.487,51.246,52.487z"
		/>
	<path fill="none" stroke="#213346" stroke-width="3" stroke-miterlimit="10" d="M51.246,47.013c-10.001,0-18.108-2.368-18.108-5.29
		v5.657c0,2.922,8.107,5.291,18.108,5.291c10.002,0,18.109-2.369,18.109-5.291v-5.657C69.355,44.645,61.248,47.013,51.246,47.013z"
		/>
	
		<polyline fill="none" stroke="#213346" stroke-width="3" stroke-linecap="round" stroke-linejoin="round" stroke-miterlimit="10" points="
		28.243,59.105 1.691,59.105 1.691,1.718 47.82,1.718 47.82,31.066 	"/>
	
		<rect x="8.176" y="47.48" fill="none" stroke="#213346" stroke-width="3" stroke-linecap="round" stroke-linejoin="round" stroke-miterlimit="10" width="6.852" height="7.22"/>
	
		<rect x="8.176" y="35.67" fill="none" stroke="#213346" stroke-width="3" stroke-linecap="round" stroke-linejoin="round" stroke-miterlimit="10" width="6.852" height="7.22"/>
	
		<rect x="8.176" y="23.863" fill="none" stroke="#213346" stroke-width="3" stroke-linecap="round" stroke-linejoin="round" stroke-miterlimit="10" width="6.852" height="7.219"/>
	
		<rect x="21.33" y="47.48" fill="none" stroke="#213346" stroke-width="3" stroke-linecap="round" stroke-linejoin="round" stroke-miterlimit="10" width="6.853" height="7.22"/>
	
		<rect x="21.33" y="35.67" fill="none" stroke="#213346" stroke-width="3" stroke-linecap="round" stroke-linejoin="round" stroke-miterlimit="10" width="6.853" height="7.22"/>
	
		<rect x="21.33" y="23.863" fill="none" stroke="#213346" stroke-width="3" stroke-linecap="round" stroke-linejoin="round" stroke-miterlimit="10" width="6.853" height="7.219"/>
	
		<rect x="34.605" y="23.863" fill="none" stroke="#213346" stroke-width="3" stroke-linecap="round" stroke-linejoin="round" stroke-miterlimit="10" width="6.853" height="7.219"/>
	
		<polyline fill="none" stroke="#213346" stroke-width="3" stroke-linecap="round" stroke-linejoin="round" stroke-miterlimit="10" points="
		33.994,6.246 8.176,6.246 8.176,19.216 41.458,19.216 41.458,6.246 39.01,6.246 	"/>
</g>
</svg>
