<?xml version="1.0" encoding="utf-8"?>
<!-- Generator: Adobe Illustrator 16.0.0, SVG Export Plug-In . SVG Version: 6.00 Build 0)  -->
<!DOCTYPE svg PUBLIC "-//W3C//DTD SVG 1.1//EN" "http://www.w3.org/Graphics/SVG/1.1/DTD/svg11.dtd">
<svg version="1.1" id="Layer_1" xmlns="http://www.w3.org/2000/svg" xmlns:xlink="http://www.w3.org/1999/xlink" x="0px" y="0px"
	 width="70.87px" height="70.87px" viewBox="0 0 70.87 70.87" enable-background="new 0 0 70.87 70.87" xml:space="preserve">
<g>
	<path fill="#213346" d="M17.63,1.623c0,0,1.248-0.066,2.889,0.263c1.642,0.328,2.298-0.854,4.071-1.313
		c1.772-0.459,2.232,0.459,3.217,0.985c0,0,1.313-1.103,2.692-1.109c1.379-0.007,2.364,0.715,2.626,1.109
		c0,0,0.919-1.169,2.691-1.109c1.773,0.059,2.692,0.978,2.692,0.978s0.919-1.042,2.626-0.98s2.394,0.747,2.394,0.747
		s0.627-0.748,2.728-0.75c0.854,0.064,2.036,1.491,2.889,1.5c0.854,0.009,3.874-0.385,4.202-0.385c0,0-2.822,3.939-3.479,4.858
		c-0.656,0.919-2.823,3.808-3.283,5.975c-0.459,2.167-0.722,3.677-0.722,3.677H25.18c0,0,0.131-1.642-0.591-3.414
		s-1.51-4.07-2.758-5.515C20.584,5.693,19.042,3.035,17.63,1.623z"/>
	<path fill="#213346" d="M33.978,19.545c0,0-1.051,6.303-1.444,7.288c-0.394,0.984-2.101,2.101-3.48,0.722
		c-1.379-1.379-0.197-2.955,0.854-4.071c1.05-1.116,3.283-3.939,3.283-3.939H33.978z"/>
	<path fill="#213346" d="M36.998,19.545h0.722l4.597,5.318c0,0,0.984,1.576-0.525,2.823c-1.511,1.248-3.053-0.295-3.283-0.525
		L36.998,19.545z"/>
	<path fill="#213346" d="M18.68,50.6c0-9.258,7.487-16.766,16.736-16.805v-6.61c-0.733,2.874-3.42,3.78-5.191,3.719
		c-1.904-0.066-2.955-1.05-4.071-2.735s-0.262-3.699,0-4.296c0.263-0.597,3.349-4.327,3.349-4.327h-4.53c0,0-0.919,3.48-1.707,4.99
		c-0.788,1.51-3.414,5.384-6.007,6.73c-2.593,1.346-4.3,2.921-6.204,6.532c-1.904,3.611-3.283,8.207-2.43,13.656
		c0.854,5.449,3.545,11.555,10.406,15.002c6.77,3.4,13.132,3.83,16.386,3.967v-3.016C26.167,67.367,18.68,59.859,18.68,50.6z"/>
	<path fill="#213346" d="M35.488,63.732c-7.252,0-13.131-5.879-13.131-13.133c0-7.252,5.879-13.131,13.131-13.131
		c0.021,0,0.04,0.002,0.061,0.002v-1.509c-0.021-0.001-0.041-0.002-0.061-0.002c-8.086,0-14.641,6.554-14.641,14.64
		c0,8.088,6.555,14.643,14.641,14.643c0.02,0,0.04-0.002,0.061-0.002v-1.51C35.528,63.73,35.508,63.732,35.488,63.732z"/>
	<path fill="#213346" d="M40.248,45.232c-0.197-1.279-1.084-2.117-1.97-2.658c-0.887-0.541-2.216-0.641-2.216-0.641v-1.23
		c0,0,0-0.641-0.575-0.641s-0.558,0.641-0.558,0.641v1.23c0,0-2.019-0.098-3.496,1.625c-0.805,0.939-0.98,2.141-0.815,3.201h2.682
		c-0.14-0.234-0.241-0.516-0.267-0.861c-0.124-1.65,1.896-1.896,1.896-1.896v2.758h1.306v-2.93c0,0,0.565,0.369,1.156,1.156
		s1.133,1.773,1.526,1.773C39.313,46.76,40.444,46.514,40.248,45.232z"/>
	<path fill="#213346" d="M36.161,51.432v-0.586c0,0,0.719,0.143,1.343,0.586h3.232c-0.091-0.373-0.242-0.725-0.466-1.027
		c-1.159-1.576-4.035-2.168-4.035-2.168V46.76H34.93v1.033c0,0-1.104-0.156-1.629-1.033h-2.682c0.139,0.885,0.515,1.67,0.963,2.117
		c0.984,0.984,3.348,1.563,3.348,1.563v0.992H36.161z"/>
	<path fill="#213346" d="M40.736,51.432h-3.232c0.482,0.346,0.908,0.871,0.897,1.656c-0.024,1.797-2.24,2.24-2.24,2.24v-3.896H34.93
		v3.748c-1.083-0.148-1.772-1.279-1.97-2.02c-0.197-0.738-0.738-1.525-1.477-1.477s-1.182,0.641-1.28,1.527
		c-0.099,0.885,1.083,2.756,2.363,3.348c1.28,0.592,2.364,0.787,2.364,0.787v2.857c0,0,0,0.639,0.619,0.611s0.613-0.611,0.613-0.611
		v-3.004c1.034,0.049,2.609-0.738,3.545-1.576C40.461,54.947,41.119,52.99,40.736,51.432z"/>
	<path fill="#213346" d="M35.548,35.961v1.509c7.224,0.033,13.071,5.898,13.071,13.129c0,7.232-5.847,13.098-13.071,13.131v1.51
		c8.058-0.033,14.581-6.574,14.581-14.641C50.129,42.535,43.606,35.994,35.548,35.961z"/>
	<path fill="#213346" d="M60.043,37.797c-1.904-3.611-3.611-5.186-6.205-6.532c-2.593-1.346-5.219-5.22-6.007-6.73
		c-0.788-1.51-1.707-4.99-1.707-4.99h-4.53c0,0,3.086,3.73,3.349,4.327c0.263,0.597,1.116,2.611,0,4.296s-2.167,2.669-4.071,2.735
		c-1.903,0.066-4.868-0.985-5.323-4.399c-0.032,0.239-0.077,0.464-0.132,0.68v6.61c0.024,0,0.047-0.002,0.071-0.002
		c9.283,0,16.807,7.525,16.807,16.807c0,9.283-7.524,16.809-16.807,16.809c-0.024,0-0.047-0.002-0.071-0.002v3.016
		c0.044,0.002,0.089,0.004,0.132,0.006c3.211-0.131,9.657-0.527,16.517-3.973c6.861-3.447,9.553-9.553,10.406-15.002
		S61.946,41.408,60.043,37.797z"/>
</g>
</svg>
